<svg enable-background="new 0 0 24.5 27.8" viewBox="0 0 24.5 27.8" xmlns="http://www.w3.org/2000/svg" xmlns:xlink="http://www.w3.org/1999/xlink"><mask id="a" height="22.8" maskUnits="userSpaceOnUse" width="22" x="1.2" y="2.4"><path clip-rule="evenodd" d="m1.2 2.4h22v22.8h-22z" fill="#fff" fill-rule="evenodd"/></mask><mask id="b" height="2.6" maskUnits="userSpaceOnUse" width="2.6" x="11.1" y="17.4"><path clip-rule="evenodd" d="m1.2 25.2h22v-22.8h-22z" fill="#fff" fill-rule="evenodd"/></mask><mask id="c" height="10.2" maskUnits="userSpaceOnUse" width="9.8" x="7.4" y="6.3"><path clip-rule="evenodd" d="m1.2 25.2h22v-22.8h-22z" fill="#fff" fill-rule="evenodd"/></mask><g clip-rule="evenodd" fill="#fff" fill-rule="evenodd"><path d="m12.2 22.4c-1.7 0-3.3-.5-4.7-1.4l-.4-.3-2.1.9.8-1.9-.4-.5c-1.4-1.6-2.2-3.7-2.2-5.8 0-5 4-9 9-9s9 4 9 9-4 9-9 9m0-20c-6.1 0-11 4.9-11 11 0 2.4.8 4.8 2.3 6.7l-2.1 5.1 5.5-2.2c1.6.9 3.5 1.4 5.3 1.4 6.1 0 11-4.9 11-11s-4.9-11-11-11" mask="url(#a)"/><path d="m11.1 20h2.6v-2.6h-2.6z" mask="url(#b)"/><path d="m8.9 7.4c-.9.8-1.4 1.8-1.5 2.9l2.4.3c.2-.8.5-1.3.9-1.7s1-.6 1.7-.6 1.2.2 1.6.5c.4.4.6.8.6 1.3 0 .4-.1.7-.3 1-.1.2-.6.6-1.4 1.2s-1.3 1.2-1.5 1.7c-.3.5-.4 1.1-.4 1.9v.6h2.4c0-.7 0-1.2.2-1.5.1-.3.5-.6 1-1.1 1.1-.9 1.8-1.6 2.1-2.1s.5-1.1.5-1.6c0-1-.4-1.9-1.3-2.7s-2.1-1.2-3.6-1.2c-1.4 0-2.6.4-3.4 1.1z" mask="url(#c)"/></g></svg>