<?xml version="1.0" encoding="UTF-8"?>
<svg width="16px" height="16px" viewBox="0 0 16 16" version="1.1" xmlns="http://www.w3.org/2000/svg" xmlns:xlink="http://www.w3.org/1999/xlink">
    <title>Group 6</title>
    <defs>
        <polygon id="path-1" points="0 0 16 0 16 16 0 16"></polygon>
    </defs>
    <g id="_Symbols" stroke="none" stroke-width="1" fill="none" fill-rule="evenodd">
        <g id="Modul/Navi/Suche-306-V2" transform="translate(-269.000000, -12.000000)">
            <g id="Group-6" transform="translate(269.000000, 12.000000)">
                <g id="Group-3">
                    <mask id="mask-2" fill="white">
                        <use xlink:href="#path-1"></use>
                    </mask>
                    <g id="Clip-2"></g>
                    <path d="M6.95652174,12.5217391 C3.888,12.5217391 1.39130435,10.0250435 1.39130435,6.95652174 C1.39130435,3.888 3.888,1.39130435 6.95652174,1.39130435 C10.0250435,1.39130435 12.5217391,3.888 12.5217391,6.95652174 C12.5217391,10.0250435 10.0250435,12.5217391 6.95652174,12.5217391 M15.7961739,14.8125217 L12.3394783,11.3558261 C13.3217391,10.1565217 13.9130435,8.624 13.9130435,6.95652174 C13.9130435,3.12069565 10.7923478,0 6.95652174,0 C3.12069565,0 3.33646154e-13,3.12069565 3.33646154e-13,6.95652174 C3.33646154e-13,10.7923478 3.12069565,13.9130435 6.95652174,13.9130435 C8.624,13.9130435 10.1565217,13.3217391 11.3558261,12.3394783 L14.8125217,15.7961739 C14.9481739,15.9318261 15.1262609,16 15.3043478,16 C15.4824348,16 15.6605217,15.9318261 15.7961739,15.7961739 C16.0681739,15.5241739 16.0681739,15.0845217 15.7961739,14.8125217" id="Fill-1" fill="#21314D" mask="url(#mask-2)"></path>
                </g>
                <path d="M9.83192141,4.16810631 C9.07911535,3.41461794 8.07781021,3 7.01338364,3 C5.94829264,3 4.94698749,3.41461794 4.19484587,4.16810631 C3.93505138,4.42790698 3.93505138,4.84784053 4.19484587,5.1076412 C4.45397594,5.36744186 4.87456396,5.36744186 5.13435846,5.1076412 C6.13832135,4.10299003 7.8877815,4.10299003 8.89240882,5.1076412 C9.39472248,5.60996678 9.67112788,6.27707641 9.67112788,6.98671096 C9.67112788,7.69700997 9.39472248,8.36345515 8.89240882,8.86578073 C8.63261432,9.1255814 8.63261432,9.5461794 8.89240882,9.80531561 C9.02197385,9.93554817 9.19206948,10 9.36216511,10 C9.53226074,10 9.70235638,9.93554817 9.83192141,9.80531561 C10.5853919,9.05315615 11,8.05182724 11,6.98671096 C11,5.92225914 10.5853919,4.92093023 9.83192141,4.16810631" id="Fill-4" fill="#21314D"></path>
            </g>
        </g>
    </g>
</svg>